<?xml version="1.0" encoding="UTF-8"?>
<svg id="_레이어_1" data-name="레이어 1" xmlns="http://www.w3.org/2000/svg" viewBox="0 0 613 75.52">
  <path d="M158.2,73.08h-19.92c.86-2.14,2.05-3.8,2.89-5.54,1.11-2.3,1.4-4.47,1.4-6.85,0-15.31-.1-30.62,.07-45.92,.04-3.46-.71-6.5-2.37-9.43-.67-1.17-1.25-2.39-2.05-3.93h25.83c.94,2.91,1.56,5.81,2.79,8.42,2.38,5.05,4.05,10.39,5.87,15.66,1.35,3.92,2.96,8.37,4.33,12.28,2.12,6.07,3.36,9.19,5.5,14.53,.32,.79,.89,1.54,1.54,2.62,6.67-17.98,13.19-35.56,19.84-53.48,7.8,0,16.58-.03,25.24-.03-.56,1.28-1.66,2.46-2.33,3.68-.64,1.17-1.23,2.37-1.71,3.62-.08,.22-.16,.44-.22,.65-.4,1.32-.49,2.69-.48,4.15,.05,14.81,.18,29.63-.05,44.44-.09,5.48,1.07,10.42,4.1,15.21h-23.87c.66-1.01,1.3-1.93,1.87-2.89,.55-.93,1.16-1.73,1.51-2.76,1.86-5.36,1.49-10.85,1.48-16.42,0-4.09-.02-8.17-.06-12.26-.03-3.44-.08-6.88-.15-10.32-.03-1.72-.07-3.45-.12-5.17-.02-.86-.05-1.72-.07-2.59-.02-.69-.32-1.95-.08-2.59-6.7,18.3-13.4,36.59-20.12,54.93h-14.06c-1.01-2.69-2.23-5.63-3.23-8.65-1.2-3.62-2.67-7.14-4-10.71-1.76-4.72-3.13-9.58-5.07-14.22-2.29-5.49-4.24-11.1-6.44-16.62-.76-1.9-1.31-3.88-2.49-5.75v3.31c0,11.36,.13,22.72-.05,34.07-.1,6.41,.44,12.57,4.69,18.55Z"/>
  <path d="M534.9,73.13c-3.33-5.6-6.4-11.32-10.01-16.69-4.14-6.16-7.42-12.81-11.56-18.98-4.35-6.49-7.95-13.47-12.04-20.52-.11,.99-.29,1.83-.29,2.66-.02,13.81,.08,27.63-.08,41.44-.05,3.97,1.18,7.82,3.45,11,1.22,1.72,2.31,1.28-.31,1.26-6.33-.05-12.67,0-19,0,0,0,1.9-3.36,2.1-3.68,.83-1.29,1.08-2.63,1.67-4.01,.94-2.18,.53-5,.71-7.32,.2-2.53,.37-5.06,.42-7.59,.1-4.58-.01-9.15-.03-13.73-.02-3.83,.21-7.67,.07-11.5-.09-2.64-.4-5.27-.64-7.9-.35-3.93-.38-8.05-2.11-11.69-.71-1.5-1.39-3.02-2.07-4.53h23.43c.61,1.07,1.7,1.95,2.49,3.2,4.7,7.43,8.44,15.41,13.51,22.64,2.71,3.88,4.73,8.25,7.27,12.3,3.05,4.86,5.71,9.97,9.04,15.87v-3.79c0-7.17,.13-14.34,.05-21.52-.04-3.66-.13-7.33-.32-10.99-.17-3.37-.18-6.95-1-10.24-.2-.81-3.33-7.11-3.99-6.95,3.6-.86,15.1-.96,20.44-.2-.25-.04-2.12,3.56-2.36,4-2.72,4.97-1.85,10.6-1.84,16.02,0,8.22,.01,16.44,0,24.67,0,7.4,0,14.8,0,22.2v4.55h-17.01Z"/>
  <path d="M238.08,1.2c5.48,0,10.96,.02,16.44,.03,2.74,0,5.48,0,8.22,0,1.96,0,3.88-.07,5.8,.05,.38,.02,.77,.05,1.15,.09,4.23,.39,9.23,.39,13.1,2.06,.32,.11,.64,.23,.96,.36,.32,.13,.63,.27,.94,.42,2.85,1.38,5.52,3.31,7.33,5.94,1.42,2.06,2.4,4.64,2.42,7.16,.03,3.94-2.28,7.82-5.01,10.53-2.12,2.1-4.8,3.53-7.62,4.49,1.34,.57,2.04,.77,2.93,1.07,2.44,.84,4.89,1.93,6.94,3.49,1.36,1.04,2.75,2.07,3.87,3.37,.4,.46,.72,.95,.99,1.47,.14,.26,.26,.52,.38,.79,2.03,4.53,2,8.24,2.03,12-.06,.44-.13,.88-.2,1.3-.23,1.28-.53,2.51-.83,3.61-.12,.41-.27,.82-.42,1.23-.16,.41-.33,.82-.53,1.24-.16,.39-.33,.77-.52,1.14-.19,.37-.4,.74-.62,1.1-1.48,2.32-3.5,4.29-5.84,5.73-3,1.86-6.8,2.89-10.51,3.4-.98,.13-1.99,.02-2.99,.02h-38.36c.73-1.6,1.2-2.83,1.84-3.97,1.75-3.07,2.51-6.3,2.49-9.86-.09-14.65-.04-29.3-.04-43.94,0-3.79-.74-6.06-2.96-10.15-.63-1.15-.84-2.51-1.37-4.18Zm19.39,63.21c5.4,0,10.38,.07,15.36-.03,2.57-.05,4.8-.93,6.86-2.67,3.2-2.7,3.6-6.02,3.76-9.87,.19-4.89-2.5-7.68-6.05-10.1-.85-.58-2.02-.96-3.05-.98-5.6-.09-11.2-.04-16.88-.04v23.7Zm.08-54.32V31.73h16.4c1.59-1.59,2.83-3.19,3.55-5.47,.86-2.7,1.27-5.34,.86-7.98-.37-2.36-3.3-8.21-8.35-8.21-4.11,0-8.22,.03-12.46,.03Z"/>
  <path d="M424.75,39.11c2.35,4.12,4.26,7.15,6.71,11.37,2.32,3.99,5.4,7.56,8.04,11.35,2.57,3.69,5.28,7.14,8.09,11.24h-17.55c-6.48-9.53-13.31-19.58-19.96-29.35h-8.92c0,6.89-.29,13.76,.17,20.59,.15,2.19,.96,4.85,2.92,6.65,.44,.41,1.13,1.56,1.55,2.11-4.48,0-15.56-.14-23.61-.14,.07-.45,.02-.96,.24-1.31,1.66-2.69,2.29-5.61,2.97-8.7,.98-4.39,.66-8.66,.72-12.97,.15-9.87-.15-19.76,.14-29.62,.13-4.45-.28-9.87-2.31-13.91-.75-1.49-1.44-3.01-2.4-5.02,1.71-.07,2.81-.16,3.91-.17,9.98-.01,19.97,.06,29.95-.03,6.85-.06,14.3,1.46,19.72,5.88,5.73,4.67,6.66,12.19,4.68,19.32-1.39,5-2.67,7.42-10.61,11.27-.43,.21-4.38,1.73-4.46,1.46Zm-23.6-4.32h18.41c4.31-4.08,6.14-8.57,6.03-14.14,0-.49,0,0,0-.49-.06-6.07-4.38-9.24-10.39-9.95-4.55-.54-9.22-.11-14.03-.11v24.69Z"/>
  <path d="M303.19,1.42h24.01c-1.21,2.33-2.71,4.48-3.46,6.85-.84,2.65-1.34,5.51-1.39,8.29-.17,9.04-.18,18.09-.03,27.13,.13,7.29,2.75,13.56,8.81,18.06,6.3,4.68,17.49,3.11,22.46-2.84,1.82-2.18,2.86-4.89,3.6-7.6,.88-3.23,1.15-6.55,1.09-9.94-.08-4.74-.14-9.47-.13-14.21,.02-6.86,1.15-14.48-2.23-20.86-.27-.52-1.87-4.89-2.2-4.89h20.77c-1.04,2.1-1.97,3.97-2.89,5.83-.83,1.69-1.47,3.34-1.45,5.35,.12,11.18,.26,22.37-.02,33.54-.17,6.93-2.2,13.37-6.89,18.88-2.96,3.47-6.82,6.18-11.02,7.94-.2,.08-.4,.16-.6,.24-2.72,1.07-5.69,1.39-8.59,1.57s-5.73,.42-8.52,0c-2.36-.35-4.7-.82-7.01-1.41-9.26-2.34-15.56-9.47-18.16-17.97-1.23-4.04-2.14-8.17-2.08-12.49,.13-8.55-.2-17.11,.12-25.65,.2-5.26-.74-9.97-3.77-14.28-.24-.35-.25-.86-.44-1.54Z"/>
  <path d="M90.7,1.32h13.85c1.7,3.78,3.78,7.42,4.97,11.32,1.3,4.26,3.21,8.23,4.75,12.37,3.32,8.99,7.21,17.76,10.49,26.78,2.48,6.83,6.33,13.18,9.55,19.76,.19,.39,.22,.87,.38,1.54h-24.02c3.99-6.56,1.08-12.5-1.37-18.44h-28.07c-.85,2.18-1.67,4.15-2.38,6.16-1.72,4.81-1.65,5.46,.82,11.05,.12,.27,.02,.65,.02,1.21h-19.09c.44-1.18,.71-2.39,1.28-3.3,3.8-6.05,5.39-10.64,7.71-16.1,1.12-2.64,2.09-5.4,3.15-8.08,1.51-3.82,3.65-7.42,4.85-11.32,1.35-4.4,3.35-8.5,5.01-12.76,2.09-5.39,4.02-10.85,6.1-16.25,.55-1.42,1.39-2.73,2.02-3.94Zm5.13,15.63c-3.81,10.36-7.98,19.61-11.26,29.25,5.74,.7,18.61,.6,22.23-.19-3.53-9.36-7.06-18.69-10.97-29.06Z"/>
  <path d="M609.69,5.35c0,2.33,0,4.67,0,7,0,1.22,.02,2.43,0,3.65-.06,4.64,.34,4.24-1.01,2.42-.33-.44-.73-.83-1.13-1.21-.87-.82-1.82-1.58-2.76-2.32-2.08-1.64-4.49-2.75-6.91-3.76-6.28-2.62-12.56-2.58-18.12,1.77-4.12,3.22-3.34,9.49,.7,12.39,1.7,1.22,3.71,2.04,5.59,2.92,1.98,.92,4.01,1.71,6.09,2.38,1.93,.63,3.88,1.2,5.77,1.92,3.34,1.27,6.38,3.26,8.91,5.79,1.27,1.28,2.42,2.68,3.41,4.19,1.11,1.67,2.17,3.37,2.46,5.39,.75,5.21,.13,10.89-2.36,15.63-2.73,5.19-7.63,7.94-12.76,10.35-2.33,1.09-5.23,1-7.88,1.41-4.59,.72-9.16-.28-13.5-1.19-4.74-.99-9.83-2.18-13.15-6.03v-14.32c1.77,1.62,2.89,2.3,3.46,2.9,4.41,4.67,15.1,9.57,22.01,8.75,7.08-.84,10.83-5.31,10.26-10.73-.35-3.31-2.33-5.45-5.38-7.15-3.68-2.04-7.64-3.28-11.5-4.71-1.77-.65-3.42-1.56-5.1-2.4-2.85-1.41-6-2.97-8.38-5.12-1.82-1.64-3.31-3.94-4.28-6.14-.77-1.76-.99-3.51-1.24-5.43-.76-5.94,1.96-13.88,6.97-17.47,1.15-.82,2.37-1.55,3.6-2.23C578.54,1.21,583.51,0,589.31,0c5.55,0,11.49,.3,16.5,2.94,.54,.28,3.88,1.86,3.88,2.42Z"/>
  <path d="M25.76,11.83c-4.89,.26-9.54,.02-13.97,.89-3.98,.79-7.71,2.81-11.79,4.37V1.3H66.49v15.74c-4.1-1.61-7.93-3.79-12.03-4.53-4.3-.78-8.85-.17-13.73-.17v4.04c0,13.65,.15,27.29-.08,40.93-.09,5.22,.97,9.91,3.81,14.26,.16,.25,.2,.58,.25,.88,.02,.14-.06,.3-.13,.65H21.56c.53-1.3,.9-2.41,1.42-3.45,1.52-3.04,2.78-7.53,2.78-10.2,0-15.62,0-31.24,0-47.62Z"/>
  <path d="M476.29,1.74c-.35,.6-.61,1.16-.97,1.63-2.08,2.66-3.37,5.47-3.34,9.02,.13,16.11,.16,32.23-.02,48.34-.04,3.3,.71,6.19,2.1,9.04,.53,1.09,1.26,2.07,2.04,3.32h-23.94c.87-1.67,1.69-3.24,2.5-4.81,.86-1.68,1.13-3.48,1.54-5.31,1.53-6.93,.68-13.89,.84-20.83,.24-10.53-.32-21.05-.39-31.58-.01-3.48-3.29-5.87-4.79-8.76,3.93-.78,19.88-.82,24.44-.06Z"/>
</svg>